# xmcd
#
# Track frame offsets:
# 150
# 20632
# 38540
# 54986
# 70066
# 83309
# 103444
# 117617
# 137633
# 156389
# 172857
# 180759
# 196937
# 210675
#
# Disc length: 3056 seconds
#
#
# Revision: 0
# Processed by: cddbd v1.4PL0 Copyright (c) Steve Scherf et al.
# Submitted via: FreeRIP 2.30 
#
DISCID=b30bee0e
DTITLE=Shania Twain - Greatest hits 2003
DYEAR=2003
DGENRE=Country
TTITLE0=I'm gonno getcho good
TTITLE1=man! i feel like a woman
TTITLE2=that don't impress me much
TTITLE3=you're still the one
TTITLE4=up
TTITLE5=whose bud have yout boots been under
TTITLE6=still under the water
TTITLE7=I'm outta here
TTITLE8=when you kiss me
TTITLE9=don't be stupid
TTITLE10=amneri letter
TTITLE11=love gets me very time
TTITLE12=what made you say that
TTITLE13=love gets me every time
EXTD=
EXTT0=send by L. Freedom
EXTT1=
EXTT2=
EXTT3=
EXTT4=
EXTT5=
EXTT6=
EXTT7=
EXTT8=
EXTT9=
EXTT10=
EXTT11=
EXTT12=
EXTT13=
PLAYORDER=
